<svg width="17" height="16" viewBox="0 0 17 16" fill="none" xmlns="http://www.w3.org/2000/svg">
<path fill-rule="evenodd" clip-rule="evenodd" d="M0.209685 7.48574C-0.0698947 7.76976 -0.0698929 8.23024 0.209687 8.51426L7.36878 15.787C7.64836 16.071 8.10165 16.071 8.38123 15.787C8.66081 15.503 8.66081 15.0425 8.38123 14.7585L1.72836 8L8.38122 1.24153C8.6608 0.957513 8.6608 0.49703 8.38122 0.213012C8.10164 -0.0710057 7.64836 -0.0710058 7.36878 0.213012L0.209685 7.48574Z" fill="white"/>
<path fill-rule="evenodd" clip-rule="evenodd" d="M5.25 8C5.25 8.40166 5.57052 8.72727 5.96591 8.72727L16.2841 8.72727C16.6795 8.72727 17 8.40166 17 8C17 7.59834 16.6795 7.27273 16.2841 7.27273L5.96591 7.27273C5.57052 7.27273 5.25 7.59834 5.25 8Z" fill="white"/>
</svg>
