<svg width="17" height="16" viewBox="0 0 17 16" fill="none" xmlns="http://www.w3.org/2000/svg">
<path fill-rule="evenodd" clip-rule="evenodd" d="M16.7903 8.51426C17.0699 8.23024 17.0699 7.76976 16.7903 7.48574L9.63122 0.213013C9.35164 -0.0710045 8.89835 -0.0710044 8.61877 0.213013C8.33919 0.49703 8.33919 0.957516 8.61877 1.24153L15.2716 8L8.61878 14.7585C8.3392 15.0425 8.3392 15.503 8.61878 15.787C8.89836 16.071 9.35165 16.071 9.63123 15.787L16.7903 8.51426Z" fill="white"/>
<path fill-rule="evenodd" clip-rule="evenodd" d="M11.75 8C11.75 7.59834 11.4295 7.27273 11.0341 7.27273H0.715909C0.320524 7.27273 0 7.59834 0 8C0 8.40166 0.320524 8.72727 0.715909 8.72727H11.0341C11.4295 8.72727 11.75 8.40166 11.75 8Z" fill="white"/>
</svg>
