<svg width="23" height="29" viewBox="0 0 23 29" fill="none" xmlns="http://www.w3.org/2000/svg">
<path d="M1.87333 29C1.44199 29 1.02832 28.8308 0.723313 28.5297C0.418309 28.2285 0.24696 27.8201 0.24696 27.3942L0.00300409 3.85382C-0.0165797 3.37586 0.0597369 2.89879 0.227565 2.45005C0.395392 2.00131 0.651419 1.58976 0.98092 1.23907C1.31042 0.888374 1.70689 0.605458 2.14754 0.40659C2.58818 0.207723 3.06429 0.0968298 3.5485 0.0802879L19.1454 0C19.6303 0.0083609 20.1087 0.110946 20.5534 0.301895C20.9981 0.492844 21.4003 0.768416 21.7371 1.11287C22.0739 1.45733 22.3386 1.86392 22.5163 2.30942C22.6939 2.75492 22.7808 3.23061 22.7722 3.7093L22.9999 27.2497C23.0027 27.5311 22.9306 27.8083 22.7907 28.0535C22.6508 28.2986 22.4482 28.5032 22.203 28.6467C21.9558 28.7877 21.6753 28.8619 21.3898 28.8619C21.1043 28.8619 20.8239 28.7877 20.5766 28.6467L11.3063 23.5725L2.70278 28.7591C2.44802 28.8996 2.16458 28.9819 1.87333 29ZM11.2412 20.088C11.5238 20.0885 11.8024 20.1545 12.0544 20.2807L19.7146 24.4718L19.5195 3.67719C19.5195 3.35604 19.3081 3.13123 19.1779 3.14729L3.56476 3.29181C3.43465 3.29181 3.25575 3.50055 3.25575 3.82171L3.45092 24.536L10.4118 20.3128C10.6646 20.1699 10.95 20.0926 11.2412 20.088Z" fill="white"/>
</svg>
