<svg width="28" height="30" viewBox="0 0 28 30" fill="none" xmlns="http://www.w3.org/2000/svg">
<path d="M18.9425 17.7686C19.3525 17.3692 19.3525 16.7217 18.9425 16.3223C18.5324 15.9229 17.8676 15.9229 17.4575 16.3223L12.25 21.3946L10.8925 20.0723C10.4824 19.6729 9.81759 19.6729 9.40754 20.0723C8.99749 20.4717 8.99749 21.1192 9.40754 21.5186L11.5075 23.5641C11.9176 23.9635 12.5824 23.9635 12.9925 23.5641L18.9425 17.7686Z" fill="#B92B2B"/>
<path fill-rule="evenodd" clip-rule="evenodd" d="M8.05 1.02273C8.05 0.457891 7.5799 0 7 0C6.4201 0 5.95 0.457891 5.95 1.02273V2.04545H1.4C0.626801 2.04545 0 2.65598 0 3.40909V28.6364C0 29.3895 0.626802 30 1.4 30H26.6C27.3732 30 28 29.3895 28 28.6364V3.40909C28 2.65598 27.3732 2.04545 26.6 2.04545H22.05V1.02273C22.05 0.457891 21.5799 0 21 0C20.4201 0 19.95 0.457891 19.95 1.02273V2.04545H8.05V1.02273ZM19.95 5.11364V4.09091H8.05V5.11364C8.05 5.67847 7.5799 6.13636 7 6.13636C6.4201 6.13636 5.95 5.67847 5.95 5.11364V4.09091H2.1V9.88636L25.9 9.88636V4.09091H22.05V5.11364C22.05 5.67847 21.5799 6.13636 21 6.13636C20.4201 6.13636 19.95 5.67847 19.95 5.11364ZM2.1 27.9545V11.9318L25.9 11.9318V27.9545H2.1Z" fill="#B92B2B"/>
</svg>
