<svg width="23" height="23" viewBox="0 0 23 23" fill="none" xmlns="http://www.w3.org/2000/svg">
<path d="M8.99034 11.3427L0.866938 3.2382C0.511201 2.88246 0.311349 2.39998 0.311349 1.89689C0.311349 1.39381 0.511201 0.911324 0.866938 0.555587C1.22267 0.199851 1.70515 0 2.20824 0C2.71133 0 3.19381 0.199851 3.54955 0.555587L11.6541 8.67899L19.7586 0.555587C20.1143 0.199851 20.5968 -3.74829e-09 21.0999 0C21.603 3.7483e-09 22.0855 0.199851 22.4412 0.555587C22.7969 0.911324 22.9968 1.39381 22.9968 1.89689C22.9968 2.39998 22.7969 2.88246 22.4412 3.2382L14.3178 11.3427L22.4412 19.4472C22.6183 19.6229 22.7588 19.8318 22.8547 20.062C22.9506 20.2922 23 20.5391 23 20.7885C23 21.0379 22.9506 21.2848 22.8547 21.5151C22.7588 21.7453 22.6183 21.9542 22.4412 22.1298C22.2656 22.3069 22.0566 22.4475 21.8264 22.5434C21.5962 22.6393 21.3493 22.6887 21.0999 22.6887C20.8505 22.6887 20.6036 22.6393 20.3734 22.5434C20.1431 22.4475 19.9342 22.3069 19.7586 22.1298L11.6541 14.0064L3.54955 22.1298C3.37392 22.3069 3.16498 22.4475 2.93477 22.5434C2.70456 22.6393 2.45763 22.6887 2.20824 22.6887C1.95885 22.6887 1.71193 22.6393 1.48171 22.5434C1.2515 22.4475 1.04256 22.3069 0.866938 22.1298C0.689869 21.9542 0.549323 21.7453 0.453413 21.5151C0.357502 21.2848 0.308124 21.0379 0.308124 20.7885C0.308124 20.5391 0.357502 20.2922 0.453413 20.062C0.549323 19.8318 0.689869 19.6229 0.866938 19.4472L8.99034 11.3427Z" fill="white"/>
</svg>
