<svg width="13" height="13" viewBox="0 0 13 13" fill="none" xmlns="http://www.w3.org/2000/svg">
<path d="M11.375 4.875H8.125V1.625C8.125 1.19402 7.95379 0.780698 7.64905 0.475952C7.3443 0.171205 6.93098 0 6.5 0C6.06902 0 5.6557 0.171205 5.35095 0.475952C5.04621 0.780698 4.875 1.19402 4.875 1.625V4.875H1.625C1.19402 4.875 0.780698 5.04621 0.475952 5.35095C0.171205 5.6557 0 6.06902 0 6.5C0 6.93098 0.171205 7.3443 0.475952 7.64905C0.780698 7.95379 1.19402 8.125 1.625 8.125H4.875V11.375C4.875 11.806 5.04621 12.2193 5.35095 12.524C5.6557 12.8288 6.06902 13 6.5 13C6.93098 13 7.3443 12.8288 7.64905 12.524C7.95379 12.2193 8.125 11.806 8.125 11.375V8.125H11.375C11.806 8.125 12.2193 7.95379 12.524 7.64905C12.8288 7.3443 13 6.93098 13 6.5C13 6.06902 12.8288 5.6557 12.524 5.35095C12.2193 5.04621 11.806 4.875 11.375 4.875Z" fill="white"/>
</svg>
