<svg width="21" height="15" viewBox="0 0 21 15" fill="none" xmlns="http://www.w3.org/2000/svg">
<path d="M19.9708 7.02719C19.3571 5.96283 15.9818 0.621836 10.2477 0.794435C4.94507 0.928679 1.87664 5.58886 1.04241 7.02719C0.958247 7.17296 0.91394 7.33831 0.91394 7.50663C0.91394 7.67495 0.958247 7.84031 1.04241 7.98608C1.6465 9.03126 4.87795 14.2188 10.5258 14.2188H10.7655C16.0681 14.0846 19.1462 9.42441 19.9708 7.98608C20.055 7.84031 20.0993 7.67495 20.0993 7.50663C20.0993 7.33831 20.055 7.17296 19.9708 7.02719ZM10.7176 12.3011C6.58477 12.3969 3.8903 8.85866 3.04648 7.50663C4.00536 5.96283 6.50805 2.80809 10.3436 2.71221C14.4572 2.60673 17.1613 6.15461 18.0147 7.50663C17.027 9.05044 14.5531 12.2052 10.7176 12.3011Z" fill="white"/>
<path d="M10.5066 4.15054C9.84284 4.15054 9.19397 4.34737 8.64206 4.71615C8.09016 5.08492 7.66 5.60907 7.40598 6.22232C7.15197 6.83557 7.0855 7.51037 7.215 8.16139C7.3445 8.8124 7.66413 9.4104 8.13349 9.87976C8.60285 10.3491 9.20085 10.6688 9.85187 10.7983C10.5029 10.9278 11.1777 10.8613 11.7909 10.6073C12.4042 10.3533 12.9283 9.9231 13.2971 9.37119C13.6659 8.81928 13.8627 8.17042 13.8627 7.50664C13.8627 6.61655 13.5091 5.76291 12.8797 5.13352C12.2503 4.50413 11.3967 4.15054 10.5066 4.15054ZM10.5066 8.94497C10.2221 8.94497 9.94405 8.86061 9.70752 8.70257C9.47099 8.54452 9.28664 8.31989 9.17777 8.05707C9.06891 7.79425 9.04042 7.50505 9.09592 7.22604C9.15142 6.94703 9.28841 6.69074 9.48956 6.48959C9.69072 6.28844 9.947 6.15145 10.226 6.09595C10.505 6.04045 10.7942 6.06894 11.057 6.1778C11.3199 6.28666 11.5445 6.47102 11.7025 6.70755C11.8606 6.94408 11.9449 7.22217 11.9449 7.50664C11.9449 7.88811 11.7934 8.25396 11.5237 8.52369C11.2539 8.79343 10.8881 8.94497 10.5066 8.94497Z" fill="white"/>
</svg>
